<?xml version="1.0" encoding="UTF-8"?>
<svg id="Layer_1" data-name="Layer 1" xmlns="http://www.w3.org/2000/svg" viewBox="0 0 1024 1024">
  <path d="M1023.26,277.03v-113.62C1015.03,71.8,938.06,0,844.31,0H179.69C80.45,0,0,80.45,0,179.69v664.62c0,99.24,80.45,179.69,179.69,179.69h664.62c99.24,0,179.69-80.45,179.69-179.69V284.22c-.48-2.36-.74-4.77-.74-7.19Z" fill="#feaa08"/>
  <g>
    <path id="R_Eyebrow" data-name="R Eyebrow" d="M782.08,225.68c14.76,3.54,35.89,13.56,44.04,28.75,7.14,13.36-3.17,27.53-17.05,21.62-5.08-2.17-12.51-7.68-18.76-10.19-15.43-6.22-31.3-8.29-47.6-6.22-12.83,1.62-22.41,8.73-33.25,13.28-9.58,4.06-21.24-3.91-20.62-15.3.7-12.91,18.06-24.4,27.81-28.31,9.89-3.95,20.68-6.06,32.43-6.38,13.01-.32,24,.59,33,2.75h0Z" fill="#441f49"/>
    <path id="L_Eyebrow" data-name="L Eyebrow" d="M196.93,273.49c-10.53-7.01-9.37-20.56-.49-28.77,18.89-17.52,45.8-21.69,70.82-20.76,14.53.54,28.62,4.15,42.31,10.85,6.1,3,10.18,6.31,12.23,9.93,5.45,9.54,3.85,23.8-6.46,28.87-7.04,3.47-12.21,1.55-19.34-2.88-26.55-16.48-60.26-11.71-86.76,3.25-4.18,2.36-8.28,2.19-12.31-.49h0Z" fill="#441f49"/>
    <g id="Eye_Glasses" data-name="Eye/Glasses">
      <g id="Glasses">
        <path d="M994.4,549.66c-.46,9.94-1.57,23.15-4.27,38.5-2.15,12.2-5.44,31.08-14.28,52.47-8.58,20.79-20.47,40.22-35.65,58.3-25.55,30.43-55.6,52.43-90.12,66.01h0c-44.9,15.63-90.19,16.59-135.83,2.87-28.47-8.54-53.58-23.63-75.34-45.2-12.97-12.85-24.74-26.98-35.33-42.32-23.22-37.75-37.29-79.41-42.22-124.9l-.84-13.45c-.05-.7-.26-1.37-.6-1.97-1.41-2.39-3.18-4.41-5.29-6.06-25.9-20.13-60.23-21.03-88.84-8.47-8.07,3.54-11.6,9.84-10.62,18.9-.45,8.18-1.86,18.04-2.45,24.28-3.76,39.06-15.44,75.02-35.06,107.85-6.47,10.85-15.83,22.8-28.06,35.9-9.27,9.91-20.89,19.22-34.87,27.93-19.89,12.39-34.79,20.61-44.71,24.66-16.95,6.91-38.29,11.25-64.05,13.04l-14.38-.13c-41.57-2.85-81.57-17.8-113.38-46.76-12.75-11.6-24.14-23.54-34.22-35.83-26.95-32.86-45.24-75.48-50.51-120.07-3.62-30.43-3.97-60.63,3.33-90.45,5.5-26.54,15.1-50.94,28.79-73.21,12.05-18.35,25.82-34.96,41.32-49.85,35.85-34.38,77.76-52.78,125.77-55.23,27.74-1.41,57.85-1.55,86.42,10.21,43.29,17.82,77.87,47.69,102.14,90.11,14.21,24.86,25.62,53.63,29.63,82.79.21,1.47,1.48,2.49,2.84,2.26.19-.02.37-.07.56-.17,34.79-14.87,76.08-15.24,109.22,5.52.39.25.9.12,1.13-.3.05-.1.09-.2.12-.3,7.76-40.79,24.13-82.27,50.12-113.62,10.68-12.89,24.28-25.79,40.82-38.72,17.64-13.8,37.14-23.7,58.52-29.74,19.53-5.5,42.17-10.8,63.25-9.81,16.01.76,32.13,2.61,48.3,5.55,11.42,2.07,21.07,4.96,28.94,8.68,27.42,12.93,52.58,29.45,73.65,52.61,5.28,5.8,19.15,21.22,32.58,44.63,17.22,30.01,25.05,57.81,28.9,76.79,1.9,9.36,3.49,20.07,4.26,31.93.58,8.91.61,17.2.31,24.75Z" fill="#441f49"/>
        <path d="M623.45,676.33c-23.88-35.09-40.8-80.06-41.56-124.35-.38-21.47.87-40.68,3.74-57.68,7.75-45.83,27.16-84.22,58.18-115.25,1.82-1.83,7.71-7.07,17.65-15.73,33.54-29.15,84.01-40.26,126.65-38.23,21.79,1.04,42.93,6.22,63.43,15.58,44.7,20.38,78.74,54.57,102.13,102.69,14.63,30.1,22.1,60.2,22.91,94.5,1.62,68.05-22,124.54-70.94,169.36-4.68,4.3-13.21,11.06-25.6,20.35-21.12,15.83-47.38,25.15-71.37,28.33-33.9,4.51-66.89,2.29-98.85-9.75-35.11-13.22-64.81-38.15-86.37-69.82Z" fill="#53c"/>
        <path d="M76.17,430.44c21.35-37.59,53.87-72.77,91.77-88.7,26.79-11.26,54.42-17.23,83.64-16.12,15.81.59,28.7,2.12,38.71,4.57,49.64,12.22,87.74,41.11,114.29,86.77,6.57,11.31,13.05,25.2,19.44,41.66,8.55,22.04,13.2,44.88,13.91,68.49.28,9.62-.09,21.34-1.14,35.17-2.72,35.9-14.46,72.27-32.5,100.99-10.58,16.84-25.24,33.51-43.96,50-50.58,44.58-120.19,55.29-181.39,33.44-40.4-14.43-74.15-50.21-98.02-88.49-6.8-10.93-12.54-23.38-17.24-37.36-19.02-56.75-17.96-113.64,3.1-170.64,2.29-6.18,5.41-12.78,9.39-19.78h0Z" fill="#53c"/>
        <path d="M346.85,383.14c13.23,10.07,24.13,21.84,32.74,35.24,3.1,4.83,8.59,14.61,16.47,29.37,7.52,14.06,12.72,28,15.41,44.78,11.18,69.48-2.8,142.84-52.18,192.15-19.94,19.92-44.86,34.86-74.75,44.82-30.18,10.04-64.87,7.65-94.57-1.91-11.88-3.85-28.16-12.6-39.14-21.23-32.15-25.32-55.07-54.47-69.36-94.6-9.93-27.78-16.06-57.7-13.29-87.77.92-10.26,3.14-22.29,6.65-36.07,14.9-58.76,52.38-103.63,104.48-127.05,16.83-7.59,34.34-11.94,52.55-13.1,42.24-2.72,80.57,9.07,115,35.36h0Z" fill="#441f49"/>
        <path d="M936.41,628.44c-40.77,91.51-144.03,132.67-229.63,92.18-50.89-24.06-89.81-75.02-101.79-134.44-6.36-31.54-5.82-64.2,1.65-98.03,11.09-50.28,36.93-88.53,77.54-114.84,28.9-18.72,61.44-27.46,97.62-26.2,22.53.77,51.6,8.82,71.47,19.38,9.27,4.92,20.29,12.64,33.08,23.16,28.57,23.53,45.98,56.44,57.58,92.61,16.05,50.12,13.56,98.83-7.51,146.18h0Z" fill="#441f49"/>
        <path d="M561.36,555.4c-1.14-1.97-2.04.1-2.73,6.26-.09.85-.81,1.45-1.6,1.35-.21-.02-.42-.1-.6-.22-32.8-22.93-60.69-15.72-95.66-3.77-1.07.37-2.2-.25-2.55-1.4,0-.05-.02-.07-.02-.12l-3.04-13.15c-.98-9.05,2.55-15.36,10.62-18.9,28.61-12.55,62.94-11.66,88.84,8.47,2.11,1.65,3.87,3.66,5.29,6.06.35.6.56,1.27.6,1.97l.84,13.45h0Z" fill="#ee7f02"/>
        <path d="M1022.5,545.52c.55-.22,1.18.07,1.42.67.05.12.07.27.07.42" fill="#ee7f02"/>
        <path d="M982.35,657.66c-10.85,26.12-25.07,49.26-42.64,69.38-1.29,1.48-9.27,9.01-23.95,22.58-9.54,8.84-18.19,15.42-25.98,19.78-52.41,29.34-110.81,36.46-167.5,18.24-17.9-5.73-34.07-12.61-48.57-20.61-8.24-4.54-15.71-10.11-22.46-16.73-14.17-13.87-23.88-23.74-29.13-29.63-1.42-1.58-3.24-4.33-5.46-8.22-.47-.8-1.07-1.53-1.77-2.11-5.66-4.58-9.58-9.02-11.77-13.37-3.99-7.86-8.7-18.13-14.18-30.78-.23-.53,0-1.15.49-1.4h.05l.6-.25c.39-.18.84,0,1.05.4,3.12,6.22,7.27,11.34,12.46,15.38v-.02c10.59,15.34,22.36,29.47,35.33,42.32,21.76,21.57,46.86,36.66,75.34,45.2,45.64,13.72,90.93,12.76,135.83-2.87,5.89.23,11.11-.63,15.66-2.57,36.03-15.37,68.58-46.6,90.88-78.87" fill="#ee7f02"/>
        <path d="M231.59,777.88l14.38.13c25.26,3.18,47.95-.18,68.04-10.09,21.67-10.66,41.07-21.9,60.05-36.22,3.13-2.34,8.99-8.05,17.61-17.13,5.49-5.76,11.69-11.49,18.61-17.24.37-.33.91-.25,1.21.15.21.3.25.73.07,1.08-1.75,3.19-3.86,6.26-6.33,9.15-16.65,19.52-27.75,31.87-33.33,37.06-6.05,5.62-18.01,14.54-35.91,26.71-8.98,6.1-21.21,11.73-36.72,16.88-28.82,9.59-59.94,9.29-88.91,5.35-20.51-2.8-40.77-10.65-60.74-23.59-21.92-14.19-38.1-28.82-48.59-43.85-.11-.15-.09-.38.07-.5.09-.08.19-.1.28-.05,7.49,2.47,12.17,4.6,14.04,6.42,17.97,17.42,38.46,30.1,61.52,38.04,20.61,7.11,35.27,11.58,54.64,7.72h0Z" fill="#ee7f02"/>
      </g>
      <g id="Left_Eye" data-name="Left Eye">
        <path d="M84.5,538.59c3.08.17,4.81-3.71,5.22-11.62.03-.7.57-1.22,1.22-1.2h.05c2.94.27,4.83-.8,5.66-3.19,2.53-7.17,5.74-15.49,9.63-24.95,14.82-36.03,40.13-67.35,69.84-91.54,9.69-7.9,20.99-14.83,33.92-20.82,2.36-1.11,4.31-2.4,5.87-3.91.51-.52.54-1.39.06-1.93-.18-.22-.44-.35-.71-.4-2.24-.37-4.29-.4-6.11-.1-13.96,2.33-26.72,4.78-39.27,13.12-14.47,9.61-25.58,18.13-33.3,25.59-9.49,9.2-17.48,19.99-23.91,32.37-.59,1.17-1.98,1.59-3.06.97-.41-.25-.73-.62-.94-1.07-.25-.57-.38-1.44-.39-2.56" vector-effect="non-scaling-stroke" fill="none" stroke="#fec527" stroke-width="2"/>
        <path d="M84.5,538.59c3.08.17,4.81-3.71,5.22-11.62.03-.7.57-1.22,1.22-1.2h.05c2.94.27,4.83-.8,5.66-3.19,2.53-7.17,5.74-15.49,9.63-24.95,14.82-36.03,40.13-67.35,69.84-91.54,9.69-7.9,20.99-14.83,33.92-20.82,2.36-1.11,4.31-2.4,5.87-3.91.51-.52.54-1.39.06-1.93-.18-.22-.44-.35-.71-.4-2.24-.37-4.29-.4-6.11-.1-13.96,2.33-26.72,4.78-39.27,13.12-14.47,9.61-25.58,18.13-33.3,25.59-9.49,9.2-17.48,19.99-23.91,32.37-.59,1.17-1.98,1.59-3.06.97-.41-.25-.73-.62-.94-1.07-.25-.57-.38-1.44-.39-2.56,13.15-25.08,28.85-39.7,51.38-55.98,14.7-10.62,30.2-17.77,46.47-21.48,5.82-1.34,13.73-2.79,23.68-4.35,44.03-6.9,96.32,11.8,127.01,46.86,28.75,32.89,43.54,71.89,44.31,117.03.08,4.46-.51,14.46-1.74,30-.99,12.21-2.34,22.08-4.06,29.65-14.68,64.26-67.12,114.04-126.55,126.38-5.75,1.18-18.37,1.58-37.84,1.16-16.89-.38-32.24-3.8-46.03-10.26-24.18-11.31-47.83-30.95-64.55-53.5-24.08-32.47-36.01-70.58-35.85-114.29h0Z" fill="#feaa08"/>
        <path d="M84.5,538.59c-.39-32.66,7.55-63.06,23.77-91.23-.01,1.12.14,1.99.39,2.56.54,1.19,1.9,1.69,3.02,1.12.42-.22.77-.57.98-1.02,6.43-12.38,14.42-23.18,23.91-32.37,7.72-7.46,18.83-15.98,33.3-25.59,12.56-8.34,25.32-10.79,39.27-13.12,1.83-.3,3.88-.27,6.11.1.69.12,1.15.82,1.03,1.56-.05.3-.19.57-.38.77-1.56,1.51-3.51,2.8-5.87,3.91-12.93,5.99-24.23,12.92-33.92,20.82-29.71,24.19-55.02,55.52-69.84,91.54-3.89,9.46-7.1,17.77-9.63,24.95-.84,2.39-2.72,3.46-5.66,3.19-.65-.05-1.21.45-1.26,1.15v.05c-.41,7.9-2.14,11.79-5.22,11.62h0Z" fill="#fee045"/>
        <path d="M250.32,407.14c69.7,3.15,123.61,67.3,120.41,143.55-3.21,76.53-62.74,136.24-132.91,133.05-70.16-3.19-124.01-67.98-120.33-144.47,3.67-76.21,63.14-135.27,132.83-132.13h0Z" fill="#fefae8"/>
        <path id="LEye" data-name="&amp;lt;LEye&amp;gt;" d="M271.65,454.37c-5.16-1.01-10.31-1.49-15.39-1.49-41.73,0-79.22,32.8-87.5,79.56-9.28,52.59,21.86,102.93,69.63,112.3,5.2,1.02,10.37,1.51,15.48,1.51,41.91,0,79.45-33.07,87.55-80.01,9.05-52.54-22.19-102.58-69.77-111.87ZM286.79,535.06c-12.38,0-22.34-10.79-22.27-24.09.08-13.3,10.16-24.07,22.52-24.07s22.32,10.77,22.26,24.07c-.06,13.3-10.14,24.09-22.51,24.09Z" fill="#441f49"/>
      </g>
      <g id="Right_Eye" data-name="Right Eye">
        <path d="M619.95,501.72c2.61-1.12,5.13-1.54,7.57-1.27.72.07,1.43-.12,2.04-.55,2.33-1.64,4.11-3.93,5.35-6.84,13.03-30.73,32.18-56.17,57.48-76.38,10.57-8.45,23.43-17.27,38.6-26.48,3.54-2.15,4.48-4.9,2.8-8.24-.72-1.46-2.23-2.28-3.75-2-11.41,2.08-21.55,5.64-30.39,10.69-16.63,9.48-31.45,22.54-44.45,39.13-.51.64-1.31.92-2.05.69l-4.23-1.12" vector-effect="non-scaling-stroke" fill="none" stroke="#fec527" stroke-width="2"/>
        <path d="M619.95,501.72c2.61-1.12,5.13-1.54,7.57-1.27.72.07,1.43-.12,2.04-.55,2.33-1.64,4.11-3.93,5.35-6.84,13.03-30.73,32.18-56.17,57.48-76.38,10.57-8.45,23.43-17.27,38.6-26.48,3.54-2.15,4.48-4.9,2.8-8.24-.72-1.46-2.23-2.28-3.75-2-11.41,2.08-21.55,5.64-30.39,10.69-16.63,9.48-31.45,22.54-44.45,39.13-.51.64-1.31.92-2.05.69l-4.23-1.12c19.24-28.77,51.25-49.67,82.29-58.62,28.17-8.11,66.48-8.56,95.66,1.16,27.18,9.08,50.39,24.95,69.69,47.62,10.11,11.88,18.8,26.91,26.07,45.07,7.28,18.14,12.14,34.99,14.61,50.55,1.28,8.02,1.87,20.58,1.74,37.69-.19,27.14-11.46,59.04-23.6,81.1-21.96,39.79-53.43,65.61-94.4,77.37-40.75,11.72-89.7,8.93-125.85-16.71-33.26-23.63-60.72-58.25-71.27-100.07-7.35-29.23-10.85-63.38-3.89-92.77h0Z" fill="#feaa08"/>
        <path d="M619.95,501.72c5.28-26.44,14.94-50.56,28.95-72.37l4.23,1.12c.74.22,1.55-.05,2.05-.69,13-16.59,27.82-29.64,44.45-39.13,8.84-5.05,18.98-8.61,30.39-10.69,1.52-.27,3.03.54,3.75,2,1.68,3.34.75,6.09-2.8,8.24-15.17,9.21-28.04,18.03-38.6,26.48-25.29,20.21-44.45,45.66-57.48,76.38-1.24,2.91-3.02,5.2-5.35,6.84-.6.42-1.32.62-2.04.55-2.43-.27-4.95.15-7.57,1.27h0Z" fill="#fee045"/>
        <path d="M905.85,571.95c-5.05,44.4-35.99,83.23-73.12,102.07-59.14,29.96-129.11,4.37-162.81-54.92-14.63-25.79-20.86-53.97-18.7-84.58.85-11.69,2.37-21.3,4.57-28.85,13.84-47.37,49.75-89.6,97.24-97.77,44.82-7.7,92.9,9,121.39,48.25,6.39,8.82,12.73,20.37,19.01,34.72,11.48,26.16,15.58,53.5,12.43,81.08h0Z" fill="#fefae8"/>
        <path id="REye" data-name="&amp;lt;Reye&amp;gt;" d="M793.43,455.58c-47.1-12.59-94.74,18.9-106.5,70.47-11.79,51.67,16.95,103.97,64.25,116.67,47.32,12.71,95.09-19.06,106.68-70.87,11.56-51.66-17.31-103.68-64.43-116.27ZM801.44,534.72c-12.36,0-22.44-10.78-22.52-24.06-.08-13.28,9.86-24.04,22.2-24.04s22.43,10.76,22.52,24.04c.1,13.28-9.84,24.06-22.2,24.06Z" fill="#441f49"/>
      </g>
    </g>
    <path id="Mouth" d="M511.62,757.61c27.11.33,50.68-15.24,56.31-45.25,1.53-8.14,6.73-11.96,15.62-11.44,16.16.95,19.06,19.51,13.94,32.84-15.1,39.12-46.95,60.03-86.25,59.58-39.27-.48-70.69-22.12-84.97-61.62-4.83-13.43-1.55-31.91,14.61-32.49,8.91-.33,14.02,3.62,15.37,11.81,5,30.11,28.24,46.26,55.37,46.56h0Z" fill="#441f49"/>
  </g>
</svg>
